# xmcd
#
# Track frame offsets:
#	182
#	18222
#	35210
#	55022
#	72622
#	94297
#	114632
#	129872
#	148205
#	170345
#	187277
#
# Disc length: 2711 seconds
#
# Revision: 0
# Processed by: cddbd v1.5.1PL0 Copyright (c) Steve Scherf et al.
# Submitted via: dBpowerAMP V4.0
#
DISCID=a50a950b
DTITLE=Mike Errico - Pictures Of The Big Vacation
DYEAR=1999
DGENRE=
TTITLE0=Tonight
TTITLE1=Daylight
TTITLE2=God
TTITLE3=Round and Round
TTITLE4=Springtime
TTITLE5=Sooner or Later
TTITLE6=7 Bottles of Bristol Cream
TTITLE7=She Was
TTITLE8=1000 Miles
TTITLE9=When She Walks By
TTITLE10=Someday
EXTD=This is Mike Errico's first (or second) album. 
EXTT0=
EXTT1=
EXTT2=
EXTT3=
EXTT4=
EXTT5=
EXTT6=
EXTT7=
EXTT8=
EXTT9=
EXTT10=
PLAYORDER=
